<?xml version="1.0" encoding="UTF-8"?>
<!DOCTYPE svg PUBLIC "-//W3C//DTD SVG 1.1//EN" "http://www.w3.org/Graphics/SVG/1.1/DTD/svg11.dtd">
<!-- Creator: CorelDRAW 2018 -->
<svg xmlns="http://www.w3.org/2000/svg" xml:space="preserve" width="8.4666mm" height="8.4666mm" version="1.1" style="shape-rendering:geometricPrecision; text-rendering:geometricPrecision; image-rendering:optimizeQuality; fill-rule:evenodd; clip-rule:evenodd"
viewBox="0 0 846.66 846.66"
 xmlns:xlink="http://www.w3.org/1999/xlink">
 <defs>
  <style type="text/css">
   <![CDATA[
    .fil0 {fill:#E31E24}
   ]]>
  </style>
 </defs>
 <g id="Layer_x0020_1">
  <metadata id="CorelCorpID_0Corel-Layer"/>
  <path class="fil0" d="M415.39 58.64c197.27,0 357.19,159.92 357.19,357.19 0,197.27 -159.92,357.19 -357.19,357.19 -197.27,0 -357.19,-159.92 -357.19,-357.19 0,-197.27 159.92,-357.19 357.19,-357.19zm184.64 514.32c10.14,15.42 5.81,36.15 -9.63,46.26 -15.42,10.12 -36.14,5.81 -46.26,-9.63 -23.88,-36.35 -60.31,-59.62 -99.87,-67.8 -39.62,-8.2 -82.37,-1.34 -118.76,22.55 -9.51,6.27 -18.4,13.63 -26.45,21.9 -7.85,8.06 -14.93,17.17 -21.06,27.1 -9.71,15.75 -30.37,20.65 -46.1,10.96 -15.76,-9.73 -20.65,-30.37 -10.95,-46.13 8.53,-13.82 18.69,-26.77 30.2,-38.61 11.28,-11.59 23.93,-22.05 37.74,-31.12 51.88,-34.07 112.63,-43.92 168.84,-32.28 56.29,11.66 108.21,44.87 142.3,96.8zm-19.6 -319.43c27.22,0 49.27,40.48 49.27,90.43 0,49.94 -22.05,90.43 -49.27,90.43 -27.22,0 -49.27,-40.49 -49.27,-90.43 0,-49.95 22.05,-90.43 49.27,-90.43zm-343.21 0c27.22,0 49.27,40.48 49.27,90.44 0,49.94 -22.05,90.42 -49.27,90.42 -27.21,0 -49.27,-40.48 -49.27,-90.42 0,-49.96 22.06,-90.44 49.27,-90.44z"/>
 </g>
</svg>
