<?xml version="1.0" encoding="UTF-8"?>
<!DOCTYPE svg PUBLIC "-//W3C//DTD SVG 1.1//EN" "http://www.w3.org/Graphics/SVG/1.1/DTD/svg11.dtd">
<!-- Creator: CorelDRAW 2018 -->
<svg xmlns="http://www.w3.org/2000/svg" xml:space="preserve" width="8.4666mm" height="8.4666mm" version="1.1" style="shape-rendering:geometricPrecision; text-rendering:geometricPrecision; image-rendering:optimizeQuality; fill-rule:evenodd; clip-rule:evenodd"
viewBox="0 0 846.66 846.66"
 xmlns:xlink="http://www.w3.org/1999/xlink">
 <defs>
  <style type="text/css">
   <![CDATA[
    .fil0 {fill:#009846}
   ]]>
  </style>
 </defs>
 <g id="Layer_x0020_1">
  <metadata id="CorelCorpID_0Corel-Layer"/>
  <path class="fil0" d="M415.39 58.64c197.27,0 357.19,159.92 357.19,357.19 0,197.27 -159.92,357.19 -357.19,357.19 -197.27,0 -357.19,-159.92 -357.19,-357.19 0,-197.27 159.92,-357.19 357.19,-357.19zm-184.23 488.91c-9.71,-15.7 -4.83,-36.3 10.88,-45.99 15.69,-9.7 36.28,-4.83 45.98,10.87 22.89,36.99 58.68,61.23 98,70.47 39.4,9.27 82.31,3.56 119.33,-19.35 9.68,-6 18.77,-13.12 27.04,-21.17 8.06,-7.85 15.38,-16.77 21.78,-26.52 10.13,-15.48 30.91,-19.82 46.38,-9.71 15.49,10.14 19.82,30.91 9.7,46.4 -8.9,13.59 -19.4,26.26 -31.23,37.78 -11.59,11.28 -24.52,21.4 -38.56,30.09 -52.79,32.67 -113.77,40.87 -169.65,27.72 -55.96,-13.17 -106.97,-47.77 -139.65,-100.59zm357.46 -303.94c27.22,0 49.27,40.48 49.27,90.43 0,49.94 -22.05,90.43 -49.27,90.43 -27.22,0 -49.27,-40.49 -49.27,-90.43 0,-49.95 22.05,-90.43 49.27,-90.43zm-343.21 0c27.22,0 49.27,40.48 49.27,90.44 0,49.94 -22.05,90.42 -49.27,90.42 -27.21,0 -49.27,-40.48 -49.27,-90.42 0,-49.96 22.06,-90.44 49.27,-90.44z"/>
 </g>
</svg>
